{"accessors" : [{"bufferView" : 0, "byteOffset" : 0, "componentType" : 5123, "count" : 5136, "type" : "SCALAR", "max" : [1061], "min" : [0]}, {"bufferView" : 1, "byteOffset" : 0, "componentType" : 5126, "count" : 1062, "type" : "VEC3", "max" : [2.8346428871154785, 6.07611083984375, 2.4423720836639404], "min" : [-2.078423023223877, 5.201127052307129, -2.4423720836639404]}, {"bufferView" : 1, "byteOffset" : 12, "componentType" : 5126, "count" : 1062, "type" : "VEC2", "max" : [1, -0], "min" : [0, -1]}, {"bufferView" : 1, "byteOffset" : 20, "componentType" : 5126, "count" : 1062, "type" : "VEC3", "max" : [0.8894866704940796, -0.156122624874115, 0.9697398543357849], "min" : [-0.9369820356369019, -1.0000044107437134, -0.9601283669471741]}, {"bufferView" : 0, "byteOffset" : 10272, "componentType" : 5123, "count" : 4959, "type" : "SCALAR", "max" : [1000], "min" : [0]}, {"bufferView" : 2, "byteOffset" : 0, "componentType" : 5126, "count" : 1001, "type" : "VEC3", "max" : [0.9805170297622681, 0.8576850295066833, 4.01745080947876], "min" : [-2.4351511001586914, 0.09455499798059464, 0.23847900331020355]}, {"bufferView" : 2, "byteOffset" : 12, "componentType" : 5126, "count" : 1001, "type" : "VEC2", "max" : [1, -0], "min" : [0, -1]}, {"bufferView" : 2, "byteOffset" : 20, "componentType" : 5126, "count" : 1001, "type" : "VEC3", "max" : [0.9868721961975098, -0.01913507841527462, 0.9975801706314087], "min" : [-0.982517659664154, -1.0000044107437134, -0.9605302810668945]}, {"bufferView" : 0, "byteOffset" : 20192, "componentType" : 5123, "count" : 5904, "type" : "SCALAR", "max" : [1049], "min" : [0]}, {"bufferView" : 3, "byteOffset" : 0, "componentType" : 5126, "count" : 1050, "type" : "VEC3", "max" : [2.9172210693359375, 6.034398078918457, 2.5207910537719727], "min" : [-2.1226489543914795, 0.20011800527572632, -2.5207910537719727]}, {"bufferView" : 3, "byteOffset" : 12, "componentType" : 5126, "count" : 1050, "type" : "VEC2", "max" : [1, -0], "min" : [0, -1]}, {"bufferView" : 3, "byteOffset" : 20, "componentType" : 5126, "count" : 1050, "type" : "VEC3", "max" : [1.0000044107437134, -0, 0.9992901682853699], "min" : [-0.9969944953918457, -0.9987528324127197, -0.9992901682853699]}, {"bufferView" : 0, "byteOffset" : 32000, "componentType" : 5123, "count" : 5568, "type" : "SCALAR", "max" : [1056], "min" : [0]}, {"bufferView" : 4, "byteOffset" : 0, "componentType" : 5126, "count" : 1057, "type" : "VEC3", "max" : [-0.15569999814033508, 6.179698944091797, 2.7199831008911133], "min" : [-1.3406569957733154, 0.08086299896240234, 1.634505033493042]}, {"bufferView" : 4, "byteOffset" : 12, "componentType" : 5126, "count" : 1057, "type" : "VEC2", "max" : [1, -0], "min" : [0, -1]}, {"bufferView" : 4, "byteOffset" : 20, "componentType" : 5126, "count" : 1057, "type" : "VEC3", "max" : [0.9999347925186157, 0.9999920129776001, 1.000003457069397], "min" : [-0.9989793300628662, -0.9794822931289673, -0.9994966983795166]}, {"bufferView" : 0, "byteOffset" : 43136, "componentType" : 5123, "count" : 5508, "type" : "SCALAR", "max" : [1016], "min" : [0]}, {"bufferView" : 5, "byteOffset" : 0, "componentType" : 5126, "count" : 1017, "type" : "VEC3", "max" : [3.3865931034088135, 6.178534984588623, 0.9982939958572388], "min" : [2.206808090209961, 2.461513042449951, -0.9979469776153564]}, {"bufferView" : 5, "byteOffset" : 12, "componentType" : 5126, "count" : 1017, "type" : "VEC2", "max" : [1, -0], "min" : [0, -1]}, {"bufferView" : 5, "byteOffset" : 20, "componentType" : 5126, "count" : 1017, "type" : "VEC3", "max" : [1.0000011920928955, 0.9982339143753052, 0.9990660548210144], "min" : [-0.9987622499465942, -0.9990858435630798, -0.9934876561164856]}, {"bufferView" : 0, "byteOffset" : 54152, "componentType" : 5123, "count" : 5940, "type" : "SCALAR", "max" : [1161], "min" : [0]}, {"bufferView" : 6, "byteOffset" : 0, "componentType" : 5126, "count" : 1162, "type" : "VEC3", "max" : [3.0072779655456543, 6.111310958862305, 2.61442494392395], "min" : [-2.221323013305664, 5.931224822998047, -2.61442494392395]}, {"bufferView" : 6, "byteOffset" : 12, "componentType" : 5126, "count" : 1162, "type" : "VEC2", "max" : [1, -0], "min" : [0, -1]}, {"bufferView" : 6, "byteOffset" : 20, "componentType" : 5126, "count" : 1162, "type" : "VEC3", "max" : [0.8710550665855408, 1.0000044107437134, 0.8710121512413025], "min" : [-0.8710550665855408, -1.0000044107437134, -0.8710121512413025]}], "asset" : {"generator" : "Aspose.3D 20.12.3", "version" : "2.0"}, "buffers" : [{"uri" : "buffer.bin", "byteLength" : 1122540}], "bufferViews" : [{"buffer" : 0, "byteOffset" : 0, "byteLength" : 66032, "target" : 34963}, {"buffer" : 0, "byteOffset" : 66036, "byteLength" : 164352, "byteStride" : 32, "target" : 34962}, {"buffer" : 0, "byteOffset" : 230392, "byteLength" : 158688, "byteStride" : 32, "target" : 34962}, {"buffer" : 0, "byteOffset" : 389084, "byteLength" : 188928, "byteStride" : 32, "target" : 34962}, {"buffer" : 0, "byteOffset" : 578016, "byteLength" : 178176, "byteStride" : 32, "target" : 34962}, {"buffer" : 0, "byteOffset" : 756196, "byteLength" : 176256, "byteStride" : 32, "target" : 34962}, {"buffer" : 0, "byteOffset" : 932456, "byteLength" : 190080, "byteStride" : 32, "target" : 34962}], "meshes" : [{"primitives" : [{"attributes" : {"POSITION" : 1, "TEXCOORD_0" : 2, "NORMAL" : 3}, "indices" : 0, "mode" : 4}]}, {"primitives" : [{"attributes" : {"POSITION" : 5, "TEXCOORD_0" : 6, "NORMAL" : 7}, "indices" : 4, "mode" : 4}]}, {"primitives" : [{"attributes" : {"POSITION" : 9, "TEXCOORD_0" : 10, "NORMAL" : 11}, "indices" : 8, "mode" : 4}]}, {"primitives" : [{"attributes" : {"POSITION" : 13, "TEXCOORD_0" : 14, "NORMAL" : 15}, "indices" : 12, "mode" : 4}]}, {"primitives" : [{"attributes" : {"POSITION" : 17, "TEXCOORD_0" : 18, "NORMAL" : 19}, "indices" : 16, "mode" : 4}]}, {"primitives" : [{"attributes" : {"POSITION" : 21, "TEXCOORD_0" : 22, "NORMAL" : 23}, "indices" : 20, "mode" : 4}]}], "nodes" : [{"mesh" : 0, "name" : "planarTrimmedSurface1"}, {"mesh" : 1, "name" : "planarTrimmedSurface2"}, {"mesh" : 2, "name" : "nurbsToPoly1"}, {"mesh" : 3, "name" : "nurbsToPoly2"}, {"mesh" : 4, "name" : "nurbsToPoly3"}, {"mesh" : 5, "name" : "nurbsToPoly4"}], "scene" : 0, "scenes" : [{"nodes" : [0, 1, 2, 3, 4, 5]}]}